<svg xmlns="http://www.w3.org/2000/svg" width="1040" height="440" viewBox="0 0 1040 440"><rect width="1040" height="440" fill="#fff"/><text x="24" y="36" font-size="25" font-weight="700" font-family="Segoe UI, Arial" fill="#111827">P99 延迟多轮趋势</text><text x="24" y="64" font-size="15" font-family="Segoe UI, Arial" fill="#64748b">所有场景均低于 250ms 预算线，订单创建存在更明显波动。</text><rect x="620" y="30" width="14" height="14" rx="2" fill="#2563eb"/><text x="640" y="42" font-size="13" font-family="Segoe UI, Arial" fill="#334155">read-user</text><rect x="744" y="30" width="14" height="14" rx="2" fill="#0891b2"/><text x="764" y="42" font-size="13" font-family="Segoe UI, Arial" fill="#334155">search-list</text><rect x="868" y="30" width="14" height="14" rx="2" fill="#16a34a"/><text x="888" y="42" font-size="13" font-family="Segoe UI, Arial" fill="#334155">create-order</text><line x1="72" y1="364" x2="998" y2="364" stroke="#e5e7eb" stroke-dasharray="0"/><text x="28" y="369" font-size="12" font-family="Segoe UI, Arial" fill="#64748b">0</text>
<line x1="72" y1="307.6" x2="998" y2="307.6" stroke="#e5e7eb" stroke-dasharray="0"/><text x="28" y="312.6" font-size="12" font-family="Segoe UI, Arial" fill="#64748b">50</text>
<line x1="72" y1="251.2" x2="998" y2="251.2" stroke="#e5e7eb" stroke-dasharray="0"/><text x="28" y="256.2" font-size="12" font-family="Segoe UI, Arial" fill="#64748b">100</text>
<line x1="72" y1="194.8" x2="998" y2="194.8" stroke="#e5e7eb" stroke-dasharray="0"/><text x="28" y="199.8" font-size="12" font-family="Segoe UI, Arial" fill="#64748b">150</text>
<line x1="72" y1="138.4" x2="998" y2="138.4" stroke="#e5e7eb" stroke-dasharray="0"/><text x="28" y="143.4" font-size="12" font-family="Segoe UI, Arial" fill="#64748b">200</text>
<line x1="72" y1="82" x2="998" y2="82" stroke="#ef4444" stroke-dasharray="6 4"/><text x="28" y="87" font-size="12" font-family="Segoe UI, Arial" fill="#64748b">250</text><polyline points="72,330.15999999999997 226.33333333333334,289.552 380.6666666666667,329.032 535,326.776 689.3333333333334,327.904 843.6666666666667,325.648 998,310.984" fill="none" stroke="#2563eb" stroke-width="3"/><circle cx="72" cy="330.15999999999997" r="4.5" fill="#2563eb"><title>R1 read-user: 30ms</title></circle><circle cx="226.33333333333334" cy="289.552" r="4.5" fill="#2563eb"><title>R2 read-user: 66ms</title></circle><circle cx="380.6666666666667" cy="329.032" r="4.5" fill="#2563eb"><title>R3 read-user: 31ms</title></circle><circle cx="535" cy="326.776" r="4.5" fill="#2563eb"><title>R4 read-user: 33ms</title></circle><circle cx="689.3333333333334" cy="327.904" r="4.5" fill="#2563eb"><title>R5 read-user: 32ms</title></circle><circle cx="843.6666666666667" cy="325.648" r="4.5" fill="#2563eb"><title>R6 read-user: 34ms</title></circle><circle cx="998" cy="310.984" r="4.5" fill="#2563eb"><title>R7 read-user: 47ms</title></circle>
<polyline points="72,304.216 226.33333333333334,289.552 380.6666666666667,323.392 535,326.776 689.3333333333334,321.136 843.6666666666667,323.392 998,325.648" fill="none" stroke="#0891b2" stroke-width="3"/><circle cx="72" cy="304.216" r="4.5" fill="#0891b2"><title>R1 search-list: 53ms</title></circle><circle cx="226.33333333333334" cy="289.552" r="4.5" fill="#0891b2"><title>R2 search-list: 66ms</title></circle><circle cx="380.6666666666667" cy="323.392" r="4.5" fill="#0891b2"><title>R3 search-list: 36ms</title></circle><circle cx="535" cy="326.776" r="4.5" fill="#0891b2"><title>R4 search-list: 33ms</title></circle><circle cx="689.3333333333334" cy="321.136" r="4.5" fill="#0891b2"><title>R5 search-list: 38ms</title></circle><circle cx="843.6666666666667" cy="323.392" r="4.5" fill="#0891b2"><title>R6 search-list: 36ms</title></circle><circle cx="998" cy="325.648" r="4.5" fill="#0891b2"><title>R7 search-list: 34ms</title></circle>
<polyline points="72,195.928 226.33333333333334,202.696 380.6666666666667,287.296 535,291.808 689.3333333333334,278.272 843.6666666666667,156.448 998,283.91200000000003" fill="none" stroke="#16a34a" stroke-width="3"/><circle cx="72" cy="195.928" r="4.5" fill="#16a34a"><title>R1 create-order: 149ms</title></circle><circle cx="226.33333333333334" cy="202.696" r="4.5" fill="#16a34a"><title>R2 create-order: 143ms</title></circle><circle cx="380.6666666666667" cy="287.296" r="4.5" fill="#16a34a"><title>R3 create-order: 68ms</title></circle><circle cx="535" cy="291.808" r="4.5" fill="#16a34a"><title>R4 create-order: 64ms</title></circle><circle cx="689.3333333333334" cy="278.272" r="4.5" fill="#16a34a"><title>R5 create-order: 76ms</title></circle><circle cx="843.6666666666667" cy="156.448" r="4.5" fill="#16a34a"><title>R6 create-order: 184ms</title></circle><circle cx="998" cy="283.91200000000003" r="4.5" fill="#16a34a"><title>R7 create-order: 71ms</title></circle><text x="72" y="398" text-anchor="middle" font-size="12" font-family="Segoe UI, Arial" fill="#334155">R1</text><text x="226.33333333333334" y="398" text-anchor="middle" font-size="12" font-family="Segoe UI, Arial" fill="#334155">R2</text><text x="380.6666666666667" y="398" text-anchor="middle" font-size="12" font-family="Segoe UI, Arial" fill="#334155">R3</text><text x="535" y="398" text-anchor="middle" font-size="12" font-family="Segoe UI, Arial" fill="#334155">R4</text><text x="689.3333333333334" y="398" text-anchor="middle" font-size="12" font-family="Segoe UI, Arial" fill="#334155">R5</text><text x="843.6666666666667" y="398" text-anchor="middle" font-size="12" font-family="Segoe UI, Arial" fill="#334155">R6</text><text x="998" y="398" text-anchor="middle" font-size="12" font-family="Segoe UI, Arial" fill="#334155">R7</text><text x="72" y="425" font-size="13" font-family="Segoe UI, Arial" fill="#64748b">单位：毫秒（ms）</text></svg>